<svg xmlns="http://www.w3.org/2000/svg" width="49.261" height="52" viewBox="0 0 49.261 52">
  <g id="noun_guarantee_2519048" transform="translate(-5 -3.997)">
    <path id="Path_91" data-name="Path 91" d="M52.947,10.7,30.141,4.073a1.824,1.824,0,0,0-1.04,0h0L6.3,10.7A1.824,1.824,0,0,0,5,12.456V32.37C5,49.7,28.2,55.7,29.192,55.942a1.787,1.787,0,0,0,.912-.009c1.423-.356,24.156-6.395,24.156-23.563V12.456A1.824,1.824,0,0,0,52.947,10.7ZM50.612,32.37c0,13.319-17.916,19.066-20.981,19.914C26.565,51.436,8.649,45.716,8.649,32.37V13.834L29.63,7.722l20.981,6.1Z"/>
    <path id="Path_92" data-name="Path 92" d="M29.564,19.824v1.907A5.473,5.473,0,0,0,30.476,32.6h2.737a1.824,1.824,0,1,1,0,3.649H27.74a1.824,1.824,0,0,0,0,3.649h1.824v1.824a1.824,1.824,0,1,0,3.649,0V39.894a5.473,5.473,0,1,0,0-10.947H30.476a1.824,1.824,0,0,1,0-3.649H35.95a1.824,1.824,0,0,0,0-3.649H33.213V19.824a1.824,1.824,0,1,0-3.649,0Z" transform="translate(-1.758 -1.229)"/>
  </g>
</svg>
