<svg id="noun_payment_2281176" xmlns="http://www.w3.org/2000/svg" width="77.248" height="77.248" viewBox="0 0 77.248 77.248">
  <path id="Path_87" data-name="Path 87" d="M7.827,90.318a1.615,1.615,0,1,1,1.148-.47,1.615,1.615,0,0,1-1.148.47Z" transform="translate(-1.415 -19.814)"/>
  <path id="Path_88" data-name="Path 88" d="M14.935,91.887H0V88.02H11.069V68.205H0V64.339H14.935Z" transform="translate(0 -14.638)"/>
  <path id="Path_89" data-name="Path 89" d="M43.024,87H22.659V67.387l.229-.427a12.709,12.709,0,0,1,5.413-5.1,16.77,16.77,0,0,1,13.726-.36,40.187,40.187,0,0,1,4.11,1.958c1.1.574,2.13,1.117,3.2,1.57a10.457,10.457,0,0,0,1.38.4c1.617.4,3.831.945,4.742,3.027a9.1,9.1,0,0,1,.582,4.2l9.722-.144,5.049-5.591a5.282,5.282,0,1,1,7.854,7.065L71.058,82.47Zm-16.5-3.867H42.714l26.377-4.261,6.7-7.472a1.415,1.415,0,0,0-2.1-1.893L67.5,76.348,43.566,76.7l-.057-3.866,8.658-.128a6.194,6.194,0,0,0-.248-2.7c-.147-.336-1.436-.654-2.127-.825a13.1,13.1,0,0,1-1.96-.593c-1.218-.515-2.373-1.121-3.49-1.707A36.741,36.741,0,0,0,40.628,65.1a12.914,12.914,0,0,0-10.552.191,9.273,9.273,0,0,0-3.551,3.1Z" transform="translate(-5.155 -13.697)"/>
  <path id="Path_90" data-name="Path 90" d="M83.323,8.629V4.519L71.01,0,47.225,12.228H26.7V41H73.821v-8.15c.641.023,1.275.046,1.893.093.386.023.772.039,1.159.039a19.484,19.484,0,0,0,6.45-1.151V27.7c-.015.008-.039.015-.054.023a15.884,15.884,0,0,1-7.3,1.367c-.7-.046-1.414-.077-2.148-.1-1.236-.031-2.511-.023-3.862.023-1.862.062-3.855.209-6.033.433l-2.379.247a2.259,2.259,0,0,1-.618-4.473l9.007-1.56a.028.028,0,0,0,.023-.008,5.681,5.681,0,0,0,3.862-2.6,5.763,5.763,0,0,0-4.867-8.829H55.668l15.6-8.018ZM68.955,16.091a1.84,1.84,0,0,1,1,.286,1.9,1.9,0,0,1,0,3.221,1.851,1.851,0,0,1-.68.255l-9.007,1.56a6.12,6.12,0,0,0,1.043,12.151,5.607,5.607,0,0,0,.618-.031s6.288-.587,8.026-.649v4.256h-39.4V16.091Z" transform="translate(-6.075)"/>
  <rect id="Rectangle_484" data-name="Rectangle 484" width="3.862" height="3.862" transform="translate(42.506 24.685)"/>
</svg>
