<svg aria-hidden="true" style="position: absolute; width: 0; height: 0; overflow: hidden;" version="1.1" xmlns="http://www.w3.org/2000/svg" xmlns:xlink="http://www.w3.org/1999/xlink">
<defs>
<symbol id="icon-sort-desc" viewBox="0 0 16 28">
<path d="M16 17c0 0.266-0.109 0.516-0.297 0.703l-7 7c-0.187 0.187-0.438 0.297-0.703 0.297s-0.516-0.109-0.703-0.297l-7-7c-0.187-0.187-0.297-0.438-0.297-0.703 0-0.547 0.453-1 1-1h14c0.547 0 1 0.453 1 1z"></path>
</symbol>
<symbol id="icon-sort-asc" viewBox="0 0 16 28">
<path d="M16 11c0 0.547-0.453 1-1 1h-14c-0.547 0-1-0.453-1-1 0-0.266 0.109-0.516 0.297-0.703l7-7c0.187-0.187 0.438-0.297 0.703-0.297s0.516 0.109 0.703 0.297l7 7c0.187 0.187 0.297 0.438 0.297 0.703z"></path>
</symbol>
<symbol id="icon-heart-o1" viewBox="0 0 28 28">
<path d="M26 9.312c0-4.391-2.969-5.313-5.469-5.313-2.328 0-4.953 2.516-5.766 3.484-0.375 0.453-1.156 0.453-1.531 0-0.812-0.969-3.437-3.484-5.766-3.484-2.5 0-5.469 0.922-5.469 5.313 0 2.859 2.891 5.516 2.922 5.547l9.078 8.75 9.063-8.734c0.047-0.047 2.938-2.703 2.938-5.563zM28 9.312c0 3.75-3.437 6.891-3.578 7.031l-9.734 9.375c-0.187 0.187-0.438 0.281-0.688 0.281s-0.5-0.094-0.688-0.281l-9.75-9.406c-0.125-0.109-3.563-3.25-3.563-7 0-4.578 2.797-7.313 7.469-7.313 2.734 0 5.297 2.156 6.531 3.375 1.234-1.219 3.797-3.375 6.531-3.375 4.672 0 7.469 2.734 7.469 7.313z"></path>
</symbol>
<symbol id="icon-twitter1" viewBox="0 0 26 28">
<path d="M25.312 6.375c-0.688 1-1.547 1.891-2.531 2.609 0.016 0.219 0.016 0.438 0.016 0.656 0 6.672-5.078 14.359-14.359 14.359-2.859 0-5.516-0.828-7.75-2.266 0.406 0.047 0.797 0.063 1.219 0.063 2.359 0 4.531-0.797 6.266-2.156-2.219-0.047-4.078-1.5-4.719-3.5 0.313 0.047 0.625 0.078 0.953 0.078 0.453 0 0.906-0.063 1.328-0.172-2.312-0.469-4.047-2.5-4.047-4.953v-0.063c0.672 0.375 1.453 0.609 2.281 0.641-1.359-0.906-2.25-2.453-2.25-4.203 0-0.938 0.25-1.797 0.688-2.547 2.484 3.062 6.219 5.063 10.406 5.281-0.078-0.375-0.125-0.766-0.125-1.156 0-2.781 2.25-5.047 5.047-5.047 1.453 0 2.766 0.609 3.687 1.594 1.141-0.219 2.234-0.641 3.203-1.219-0.375 1.172-1.172 2.156-2.219 2.781 1.016-0.109 2-0.391 2.906-0.781z"></path>
</symbol>
<symbol id="icon-facebook1" viewBox="0 0 16 28">
<path d="M14.984 0.187v4.125h-2.453c-1.922 0-2.281 0.922-2.281 2.25v2.953h4.578l-0.609 4.625h-3.969v11.859h-4.781v-11.859h-3.984v-4.625h3.984v-3.406c0-3.953 2.422-6.109 5.953-6.109 1.687 0 3.141 0.125 3.563 0.187z"></path>
</symbol>
<symbol id="icon-linkedin" viewBox="0 0 24 28">
<path d="M5.453 9.766v15.484h-5.156v-15.484h5.156zM5.781 4.984c0.016 1.484-1.109 2.672-2.906 2.672v0h-0.031c-1.734 0-2.844-1.188-2.844-2.672 0-1.516 1.156-2.672 2.906-2.672 1.766 0 2.859 1.156 2.875 2.672zM24 16.375v8.875h-5.141v-8.281c0-2.078-0.75-3.5-2.609-3.5-1.422 0-2.266 0.953-2.641 1.875-0.125 0.344-0.172 0.797-0.172 1.266v8.641h-5.141c0.063-14.031 0-15.484 0-15.484h5.141v2.25h-0.031c0.672-1.062 1.891-2.609 4.672-2.609 3.391 0 5.922 2.219 5.922 6.969z"></path>
</symbol>
<symbol id="icon-youtube-play" viewBox="0 0 28 28">
<path d="M11.109 17.625l7.562-3.906-7.562-3.953v7.859zM14 4.156c5.891 0 9.797 0.281 9.797 0.281 0.547 0.063 1.75 0.063 2.812 1.188 0 0 0.859 0.844 1.109 2.781 0.297 2.266 0.281 4.531 0.281 4.531v2.125s0.016 2.266-0.281 4.531c-0.25 1.922-1.109 2.781-1.109 2.781-1.062 1.109-2.266 1.109-2.812 1.172 0 0-3.906 0.297-9.797 0.297v0c-7.281-0.063-9.516-0.281-9.516-0.281-0.625-0.109-2.031-0.078-3.094-1.188 0 0-0.859-0.859-1.109-2.781-0.297-2.266-0.281-4.531-0.281-4.531v-2.125s-0.016-2.266 0.281-4.531c0.25-1.937 1.109-2.781 1.109-2.781 1.062-1.125 2.266-1.125 2.812-1.188 0 0 3.906-0.281 9.797-0.281v0z"></path>
</symbol>
<symbol id="icon-instagram" viewBox="0 0 24 28">
<path d="M16 14c0-2.203-1.797-4-4-4s-4 1.797-4 4 1.797 4 4 4 4-1.797 4-4zM18.156 14c0 3.406-2.75 6.156-6.156 6.156s-6.156-2.75-6.156-6.156 2.75-6.156 6.156-6.156 6.156 2.75 6.156 6.156zM19.844 7.594c0 0.797-0.641 1.437-1.437 1.437s-1.437-0.641-1.437-1.437 0.641-1.437 1.437-1.437 1.437 0.641 1.437 1.437zM12 4.156c-1.75 0-5.5-0.141-7.078 0.484-0.547 0.219-0.953 0.484-1.375 0.906s-0.688 0.828-0.906 1.375c-0.625 1.578-0.484 5.328-0.484 7.078s-0.141 5.5 0.484 7.078c0.219 0.547 0.484 0.953 0.906 1.375s0.828 0.688 1.375 0.906c1.578 0.625 5.328 0.484 7.078 0.484s5.5 0.141 7.078-0.484c0.547-0.219 0.953-0.484 1.375-0.906s0.688-0.828 0.906-1.375c0.625-1.578 0.484-5.328 0.484-7.078s0.141-5.5-0.484-7.078c-0.219-0.547-0.484-0.953-0.906-1.375s-0.828-0.688-1.375-0.906c-1.578-0.625-5.328-0.484-7.078-0.484zM24 14c0 1.656 0.016 3.297-0.078 4.953-0.094 1.922-0.531 3.625-1.937 5.031s-3.109 1.844-5.031 1.937c-1.656 0.094-3.297 0.078-4.953 0.078s-3.297 0.016-4.953-0.078c-1.922-0.094-3.625-0.531-5.031-1.937s-1.844-3.109-1.937-5.031c-0.094-1.656-0.078-3.297-0.078-4.953s-0.016-3.297 0.078-4.953c0.094-1.922 0.531-3.625 1.937-5.031s3.109-1.844 5.031-1.937c1.656-0.094 3.297-0.078 4.953-0.078s3.297-0.016 4.953 0.078c1.922 0.094 3.625 0.531 5.031 1.937s1.844 3.109 1.937 5.031c0.094 1.656 0.078 3.297 0.078 4.953z"></path>
</symbol>
<symbol id="icon-noun_payment_-1" viewBox="0 0 32 32">
<path d="M2.656 29.206c-0.368-0.002-0.665-0.301-0.665-0.669 0-0.369 0.3-0.669 0.669-0.669s0.669 0.3 0.669 0.669c0 0.185-0.075 0.353-0.197 0.474l-0 0c-0.121 0.12-0.288 0.195-0.472 0.195-0.001 0-0.003 0-0.004 0h0z"></path>
<path d="M6.187 32h-6.187v-1.602h4.585v-8.208h-4.585v-1.602h6.187z"></path>
<path d="M15.687 30.366h-8.436v-8.125l0.095-0.177c0.527-0.913 1.293-1.637 2.212-2.099l0.030-0.014c0.88-0.433 1.915-0.686 3.009-0.686 0.966 0 1.886 0.197 2.722 0.554l-0.045-0.017c0.686 0.281 1.246 0.553 1.787 0.854l-0.085-0.043c0.456 0.238 0.882 0.463 1.326 0.65 0.155 0.060 0.347 0.117 0.543 0.16l0.029 0.005c0.67 0.166 1.587 0.391 1.964 1.254 0.164 0.407 0.259 0.879 0.259 1.373 0 0.129-0.006 0.257-0.019 0.383l0.001-0.016 4.027-0.060 2.092-2.316c0.402-0.446 0.982-0.725 1.627-0.725 1.208 0 2.188 0.98 2.188 2.188 0 0.564-0.213 1.077-0.563 1.465l0.002-0.002-3.152 3.515zM8.852 28.764h6.707l10.927-1.765 2.775-3.095c0.083-0.101 0.134-0.231 0.134-0.373 0-0.324-0.262-0.586-0.586-0.586-0.163 0-0.311 0.067-0.418 0.175l-0 0-2.565 2.834-9.915 0.146-0.024-1.602 3.587-0.053c0.014-0.099 0.021-0.214 0.021-0.33 0-0.282-0.045-0.553-0.129-0.806l0.005 0.018c-0.061-0.139-0.595-0.271-0.881-0.342-0.316-0.070-0.587-0.154-0.849-0.259l0.037 0.013c-0.505-0.213-0.983-0.464-1.446-0.707-0.412-0.234-0.918-0.481-1.438-0.7l-0.1-0.037c-0.619-0.271-1.34-0.428-2.097-0.428-0.826 0-1.608 0.187-2.306 0.521l0.032-0.014c-0.602 0.303-1.098 0.739-1.463 1.271l-0.008 0.013z"></path>
<path d="M32 3.575v-1.703l-5.101-1.872-9.853 5.065h-8.502v11.919h19.52v-3.376c0.266 0.010 0.528 0.019 0.784 0.039 0.16 0.010 0.32 0.016 0.48 0.016 0.96-0.008 1.878-0.182 2.728-0.495l-0.056 0.018v-1.711c-0.006 0.003-0.016 0.006-0.022 0.010-0.791 0.363-1.715 0.575-2.69 0.575-0.118 0-0.235-0.003-0.351-0.009l0.016 0.001c-0.29-0.019-0.586-0.032-0.89-0.041-0.512-0.013-1.040-0.010-1.6 0.010-0.771 0.026-1.597 0.087-2.499 0.179l-0.986 0.102c-0.029 0.003-0.063 0.005-0.097 0.005-0.517 0-0.936-0.419-0.936-0.936 0-0.461 0.333-0.844 0.771-0.921l0.006-0.001 3.731-0.646c0 0 0.001 0 0.001 0 0.003 0 0.006-0.001 0.008-0.003v0c0.679-0.12 1.247-0.517 1.594-1.067l0.006-0.010c0.23-0.36 0.366-0.799 0.366-1.27 0-1.317-1.066-2.384-2.382-2.387h-5.504l6.462-3.321zM26.048 6.666c0.002 0 0.004-0 0.006-0 0.151 0 0.293 0.044 0.411 0.12l-0.003-0.002c0.223 0.141 0.369 0.387 0.369 0.667s-0.146 0.526-0.366 0.665l-0.003 0.002c-0.081 0.051-0.176 0.088-0.277 0.105l-0.005 0.001-3.731 0.646c-1.203 0.213-2.104 1.25-2.104 2.498 0 1.4 1.135 2.535 2.535 2.535 0 0 0.001 0 0.001 0h-0c0.003 0 0.008 0 0.012 0 0.086 0 0.171-0.005 0.255-0.014l-0.010 0.001s2.605-0.243 3.325-0.269v1.763h-16.321v-8.72z"></path>
<path d="M17.608 10.226h1.6v1.6h-1.6v-1.6z"></path>
</symbol>
<symbol id="icon-noun_guarantee_-5" viewBox="0 0 30 32">
<path d="M29.506 4.125l-14.034-4.078c-0.096-0.030-0.206-0.047-0.32-0.047s-0.224 0.017-0.328 0.049l0.008-0.002-14.031 4.078c-0.467 0.143-0.8 0.57-0.8 1.075 0 0.002 0 0.004 0 0.006v-0 12.255c0 10.665 14.277 14.357 14.887 14.506 0.081 0.021 0.174 0.034 0.27 0.034 0.104 0 0.204-0.014 0.299-0.041l-0.008 0.002c0.876-0.219 14.865-3.935 14.865-14.5v-12.255c0-0.001 0-0.002 0-0.003 0-0.508-0.337-0.937-0.8-1.075l-0.008-0.002zM28.069 17.46c0 8.196-11.025 11.733-12.911 12.255-1.887-0.522-12.912-4.042-12.912-12.255v-11.407l12.911-3.761 12.911 3.754z"></path>
<path d="M14.034 8.983v1.174c-1.602 0.279-2.805 1.659-2.805 3.321 0 1.859 1.507 3.367 3.366 3.368h1.684c0.62 0 1.123 0.503 1.123 1.123s-0.503 1.123-1.123 1.123v0h-3.368c-0.62 0-1.123 0.503-1.123 1.123s0.503 1.123 1.123 1.123v0h1.122v1.122c0 0.62 0.503 1.123 1.123 1.123s1.123-0.503 1.123-1.123v0-1.125c1.86 0 3.368-1.508 3.368-3.368s-1.508-3.368-3.368-3.368v0h-1.684c-0.62 0-1.123-0.503-1.123-1.123s0.503-1.123 1.123-1.123v0h3.369c0.62 0 1.123-0.503 1.123-1.123s-0.503-1.123-1.123-1.123v0h-1.684v-1.123c0-0.62-0.503-1.123-1.123-1.123s-1.123 0.503-1.123 1.123v0z"></path>
</symbol>
<symbol id="icon--2" viewBox="0 0 45 32">
<path d="M14.589 0c-3.554 0.003-6.532 2.465-7.325 5.776l-0.010 0.051h-5.522c-0.957 0-1.732 0.775-1.732 1.732s0.775 1.732 1.732 1.732h5.522c0.814 3.351 3.788 5.801 7.335 5.801s6.522-2.45 7.325-5.75l0.011-0.052h21.434c0.956 0 1.732-0.775 1.732-1.732s-0.775-1.732-1.732-1.732v0h-21.428c-0.804-3.364-3.785-5.827-7.341-5.827-0 0-0 0-0 0v0zM14.589 11.654c-2.25 0-4.075-1.824-4.075-4.075s1.824-4.075 4.075-4.075c2.25 0 4.075 1.824 4.075 4.075 0 0.001 0 0.003 0 0.004v-0c-0.002 2.249-1.826 4.070-4.075 4.070v0z"></path>
<path d="M30.563 16.911c-3.554 0.003-6.532 2.465-7.325 5.776l-0.010 0.051h-21.496c-0.957 0-1.732 0.775-1.732 1.732s0.775 1.732 1.732 1.732h21.428c0.814 3.351 3.788 5.801 7.335 5.801s6.522-2.45 7.325-5.75l0.011-0.052h5.522c0.956 0 1.732-0.775 1.732-1.732s-0.775-1.732-1.732-1.732h-5.515c-0.799-3.342-3.745-5.794-7.27-5.827l-0.004-0zM30.563 28.526c-2.25 0-4.075-1.824-4.075-4.075s1.824-4.075 4.075-4.075c2.25 0 4.073 1.823 4.075 4.072v0c0 0.001 0 0.001 0 0.002 0 2.25-1.824 4.075-4.075 4.075v0z"></path>
</symbol>
<symbol id="icon-noun_Home_-4" viewBox="0 0 32 32">
<path fill="#b2b2b2" style="fill: var(--color1, #b2b2b2)" d="M2.193 14.733l0.698-0.589v16.523c0 0.736 0.597 1.333 1.333 1.333v0h23.552c0.736 0 1.333-0.597 1.333-1.333v0-16.523l0.698 0.589c0.227 0.184 0.518 0.295 0.836 0.295 0.736 0 1.333-0.597 1.333-1.333 0-0.397-0.173-0.753-0.449-0.998l-0.001-0.001-6.4-5.404v-5.075c0-0.736-0.597-1.333-1.333-1.333s-1.333 0.597-1.333 1.333v0 2.825l-5.606-4.727c-0.23-0.195-0.531-0.314-0.86-0.314s-0.629 0.119-0.862 0.316l0.002-0.002-14.667 12.373c-0.304 0.246-0.497 0.62-0.497 1.039 0 0.736 0.597 1.333 1.333 1.333 0.339 0 0.649-0.127 0.885-0.336l-0.001 0.001zM13.013 29.333v-9.626h5.973v9.626zM16 3.078l10.443 8.815v17.44h-4.796v-10.959c0-0.736-0.597-1.333-1.333-1.333v0h-8.627c-0.736 0-1.333 0.597-1.333 1.333v0 10.959h-4.796v-17.44z"></path>
</symbol>
<symbol id="icon-noun_materials_-4" viewBox="0 0 32 32">
<path d="M10.097 20.685c0 0.526-0.427 0.953-0.953 0.953s-0.953-0.427-0.953-0.953c0-0.526 0.427-0.953 0.953-0.953s0.953 0.427 0.953 0.953z"></path>
<path d="M31.63 0h-21.358v10.642h-10.271v21.358h21.358v-10.642h10.271v-21.358zM29.967 4.551l-8.607 8.607v-2.516h-3.167l8.905-8.905-0.074-0.074h2.943v2.888zM19.695 21.305c-1.427-0.24-3.641-0.51-4.439 2.174-0.426 1.434-1.579 3.081-2.506 4.405-0.554 0.713-1.059 1.518-1.48 2.371l-0.037 0.083h-2.634c-0-0.008-0-0.017-0-0.026 0-1.322 0.449-2.539 1.203-3.507l-0.010 0.013c0.361-0.407 0.774-0.756 1.23-1.042l0.024-0.014c1.546-0.897 2.621-2.459 2.834-4.285l0.003-0.027c0.079-0.429 0.125-0.924 0.125-1.428 0-1.188-0.251-2.317-0.704-3.338l0.021 0.053c-0.425-0.97-0.673-2.101-0.673-3.29 0-0.403 0.028-0.799 0.083-1.186l-0.005 0.044h2.435c0.069 0.339 0.127 0.691 0.189 1.063 0.349 2.101 0.783 4.715 3.575 6.152 0.156 0.081 0.258 0.136 0.322 0.173 0.121 0.126 0.27 0.225 0.436 0.288l0.008 0.003v1.324zM6.184 22.783c-0.025-0.233-0.040-0.503-0.040-0.777 0-0.623 0.075-1.229 0.216-1.808l-0.011 0.052c0.255-0.877 0.644-1.641 1.151-2.312l-0.013 0.018c1.153-1.558 1.846-3.518 1.846-5.639 0-0.004 0-0.009 0-0.013v0.001h1.727c-0.043 0.348-0.067 0.75-0.067 1.158 0 1.389 0.284 2.711 0.797 3.912l-0.025-0.065c0.366 0.799 0.579 1.733 0.579 2.717 0 0.412-0.037 0.816-0.109 1.207l0.006-0.041c-0.302 1.931-1.153 2.519-2.139 3.2-0.617 0.39-1.146 0.849-1.599 1.375l-0.008 0.009c-0.971 1.236-1.558 2.814-1.558 4.529 0 0.011 0 0.021 0 0.032v-0.002h-1.737c1.156-4.068 1.061-5.993 0.984-7.553zM19.695 18.044l-0.006-0.003c-2.049-1.054-2.363-2.945-2.695-4.946-0.043-0.261-0.089-0.526-0.138-0.791h2.839v5.738zM11.934 9.171l7.507-7.508h5.378l-8.978 8.979h-3.907zM17.090 1.663l-5.156 5.156v-5.156zM4.246 12.305c-0.444 1.66-0.974 3.085-1.618 4.446l0.067-0.158c-0.339 0.805-0.692 1.646-1.031 2.517v-6.805zM1.663 24.994c0.459-2.753 1.576-5.411 2.564-7.757 0.689-1.41 1.276-3.055 1.675-4.773l0.031-0.16h1.735c0 0.004 0 0.008 0 0.012 0 1.778-0.588 3.419-1.581 4.739l0.015-0.020c-0.594 0.797-1.062 1.729-1.351 2.737l-0.015 0.061c-0.164 0.648-0.258 1.393-0.258 2.159 0 0.308 0.015 0.613 0.045 0.914l-0.003-0.038c0.074 1.495 0.166 3.348-1.054 7.471h-1.804v-5.344zM13.102 30.337c0.285-0.465 0.682-1.032 1.010-1.5 0.993-1.422 2.235-3.192 2.738-4.885 0.374-1.26 1.048-1.269 2.735-0.979l0.11 0.019v7.346zM21.358 15.511l8.607-8.607v5.602l-7.187 7.19h-1.42v-4.185zM25.128 19.695l4.839-4.839v4.839z"></path>
</symbol>
<symbol id="icon-noun_Next_-1" viewBox="0 0 56 32">
<path d="M31.387 1.399l23.421 23.421c0.608 0.725 0.977 1.668 0.977 2.697 0 2.325-1.885 4.211-4.211 4.211-1.029 0-1.972-0.369-2.703-0.982l0.007 0.005-20.836-20.836-20.836 20.836c-0.725 0.608-1.668 0.977-2.697 0.977-2.325 0-4.211-1.885-4.211-4.211 0-1.029 0.369-1.972 0.982-2.703l-0.005 0.007 23.421-23.421c0.859-0.85 2.041-1.375 3.346-1.375s2.487 0.525 3.346 1.375l-0-0z"></path>
</symbol>
<symbol id="icon-noun_Next_-2" viewBox="0 0 56 32">
<path d="M31.387 30.606l23.421-23.421c0.608-0.725 0.977-1.668 0.977-2.697 0-2.325-1.885-4.211-4.211-4.211-1.029 0-1.972 0.369-2.703 0.982l0.007-0.005-20.856 20.811-20.836-20.831c-0.725-0.608-1.668-0.977-2.697-0.977-2.325 0-4.211 1.885-4.211 4.211 0 1.029 0.369 1.972 0.982 2.703l-0.005-0.007 23.401 23.44c0.861 0.861 2.051 1.394 3.366 1.394s2.504-0.533 3.366-1.394v0z"></path>
</symbol>
<symbol id="icon-noun_Star_-11" viewBox="0 0 34 32">
<path fill="#fbb03b" style="fill: var(--color2, #fbb03b)" d="M33.501 12.152c-0.136-0.419-0.473-0.701-1.491-0.796l-9.265-0.861c-0.496-0.004-0.916-0.324-1.070-0.768l-0.002-0.008-3.68-8.547c-0.405-0.936-0.776-1.171-1.219-1.171s-0.814 0.235-1.219 1.171l-3.68 8.547c-0.156 0.452-0.576 0.772-1.072 0.776h-0l-9.265 0.858c-1.021 0.095-1.362 0.378-1.491 0.796s-0.031 0.848 0.739 1.522l6.992 6.127c0.281 0.211 0.461 0.543 0.461 0.917 0 0.122-0.019 0.24-0.055 0.35l0.002-0.008-2.042 9.078c-0.225 0.994-0.061 1.406 0.296 1.665s0.796 0.289 1.675-0.231l8.003-4.765c0.184-0.132 0.414-0.212 0.662-0.212s0.478 0.079 0.665 0.214l-0.003-0.002 8.003 4.765c0.878 0.521 1.317 0.49 1.675 0.231s0.521-0.681 0.296-1.665l-2.042-9.078c-0.033-0.102-0.052-0.22-0.052-0.342 0-0.374 0.18-0.707 0.458-0.915l0.003-0.002 6.992-6.127c0.759-0.671 0.865-1.099 0.728-1.518z"></path>
</symbol>
<symbol id="icon-noun_cloth_-4" viewBox="0 0 42 32">
<path fill="#fff" style="fill: var(--color3, #fff)" d="M19.729 31.999c-0.012 0-0.026 0.001-0.040 0.001-0.522 0-0.968-0.326-1.146-0.785l-0.003-0.008-2.98-7.822h-13.1c-1.358 0-2.459-1.101-2.459-2.459 0-0.001 0-0.001 0-0.002v0-18.462c0-0 0-0.001 0-0.001 0-1.359 1.101-2.46 2.46-2.46 0.003 0 0.006 0 0.009 0h17.227c0 0 0 0 0 0 0.489 0 0.912 0.286 1.11 0.699l0.003 0.007 3.721 7.908h14.859c1.358 0 2.459 1.101 2.459 2.459 0 0.001 0 0.001 0 0.002v-0 18.461c0 0 0 0.001 0 0.001 0 1.359-1.102 2.46-2.46 2.46-0.003 0-0.006 0-0.009 0h0zM18.911 2.461h-16.442s0 6.154 0 18.461h25.137zM25.685 11.076l4.966 10.552c0.074 0.153 0.117 0.333 0.117 0.524 0 0.369-0.162 0.7-0.419 0.925l-0.001 0.001-7.381 6.458h16.413s0-6.154 0-18.461zM20.212 28.677l6.050-5.294h-8.068z"></path>
</symbol>
<symbol id="icon-noun_cloth_-1" viewBox="0 0 42 32">
<path d="M19.729 31.999c-0.012 0-0.026 0.001-0.040 0.001-0.522 0-0.968-0.326-1.146-0.785l-0.003-0.008-2.98-7.822h-13.1c-1.358 0-2.459-1.101-2.459-2.459 0-0.001 0-0.001 0-0.002v0-18.462c0-0 0-0.001 0-0.001 0-1.359 1.101-2.46 2.46-2.46 0.003 0 0.006 0 0.009 0h17.227c0 0 0 0 0 0 0.489 0 0.912 0.286 1.11 0.699l0.003 0.007 3.721 7.908h14.859c1.358 0 2.459 1.101 2.459 2.459 0 0.001 0 0.001 0 0.002v-0 18.461c0 0 0 0.001 0 0.001 0 1.359-1.102 2.46-2.46 2.46-0.003 0-0.006 0-0.009 0h0zM18.911 2.461h-16.442s0 6.154 0 18.461h25.137zM25.685 11.076l4.966 10.552c0.074 0.153 0.117 0.333 0.117 0.524 0 0.369-0.162 0.7-0.419 0.925l-0.001 0.001-7.381 6.458h16.413s0-6.154 0-18.461zM20.212 28.677l6.050-5.294h-8.068z"></path>
</symbol>
<symbol id="icon-noun_cart_-1" viewBox="0 0 32 32">
<path d="M1.334 2.666h2.227l3.338 15.062c-1.623 0.788-2.723 2.424-2.723 4.317 0 0.038 0 0.076 0.001 0.113l-0-0.006c-0.003 0.064-0.005 0.138-0.005 0.213 0 2.431 1.904 4.418 4.302 4.55l0.012 0.001h17.679c0.013 0 0.029 0.001 0.044 0.001 0.737 0 1.334-0.597 1.334-1.334s-0.597-1.334-1.334-1.334c-0.015 0-0.031 0-0.046 0.001l0.002-0h-17.68c-0.942-0.142-1.656-0.946-1.656-1.917 0-0.063 0.003-0.125 0.009-0.187l-0.001 0.008c-0.005-0.054-0.009-0.118-0.009-0.182 0-0.968 0.71-1.771 1.638-1.915l0.011-0.001h17.687c0 0 0 0 0 0 0.574 0 1.064-0.363 1.252-0.872l0.003-0.009 4.509-12.496c0.050-0.134 0.079-0.289 0.079-0.451 0-0.737-0.597-1.334-1.334-1.334h-23.888l-0.852-3.849c-0.136-0.603-0.667-1.046-1.301-1.046-0 0-0 0-0.001 0h-3.297c-0.717 0.024-1.29 0.612-1.29 1.333s0.572 1.309 1.288 1.333l0.002 0zM28.769 7.564l-3.542 9.83h-15.674l-2.182-9.83h21.398z"></path>
<path d="M9.562 29.334c-0.717 0.024-1.29 0.612-1.29 1.333s0.572 1.309 1.288 1.333l0.002 0h1.693c0.013 0 0.029 0.001 0.044 0.001 0.737 0 1.334-0.597 1.334-1.334s-0.597-1.334-1.334-1.334c-0.015 0-0.031 0-0.046 0.001l0.002-0z"></path>
<path d="M21.863 29.334c-0.717 0.024-1.29 0.612-1.29 1.333s0.572 1.309 1.288 1.333l0.002 0h1.693c0.013 0 0.029 0.001 0.044 0.001 0.737 0 1.334-0.597 1.334-1.334s-0.597-1.334-1.334-1.334c-0.015 0-0.031 0-0.046 0.001l0.002-0z"></path>
</symbol>
<symbol id="icon-outline" viewBox="0 0 14 32">
<path d="M3.733 32h6.933c2.061-0.002 3.731-1.673 3.733-3.733v-10.667c0-0.295-0.239-0.534-0.534-0.534h-1.6v-16.533c0-0.294-0.239-0.533-0.533-0.533h-4.8c-0.295 0-0.534 0.239-0.534 0.533v0 16.533h-1.066v-8.533c0-0.071-0.014-0.139-0.039-0.202l0.001 0.004-1.067-2.667c-0.081-0.198-0.272-0.336-0.496-0.336s-0.415 0.137-0.494 0.332l-0.001 0.004-1.067 2.667c-0.024 0.059-0.038 0.127-0.038 0.198v0 8.533h-1.6c-0 0-0 0-0 0-0.295 0-0.533 0.239-0.533 0.534v0 10.666c0.002 2.061 1.673 3.731 3.733 3.734h0zM7.466 1.067h3.733v1.067h-2.666v1.067h2.666v1.067h-1.6v1.067h1.6v1.067h-2.666v1.066h2.666v1.066h-1.6v1.067h1.6v1.066h-2.666v1.066h2.666v1.067h-1.6v1.066h1.6v1.066h-2.666v1.067h2.666v1.066h-3.733zM4.266 10.446l-1.067 1.065v-1.377h1.067zM3.2 13.021l1.067-1.066v1.692l-1.067 1.065zM3.2 8.636l0.534-1.333 0.534 1.333v0.43h-1.067zM3.2 16.221l1.067-1.066v1.91h-1.067zM1.067 18.131h12.267v10.135c-0.002 1.472-1.195 2.665-2.666 2.666h-6.934c-1.472-0.002-2.665-1.195-2.667-2.666v-0z"></path>
<path d="M4.266 29.333h5.833c0.004 0 0.009 0 0.014 0 0.887 0 1.608-0.714 1.619-1.599v-6.934c0-0.294-0.239-0.533-0.533-0.534h-8c-0.295 0-0.534 0.239-0.534 0.534v0 6.933c0 0.884 0.716 1.6 1.6 1.6v0zM3.733 27.733v-1.067h1.6v1.6h-1.066c-0.295 0-0.534-0.239-0.534-0.534v0zM8 24v1.6h-1.6v-1.6zM6.4 22.933v-1.6h1.6v1.6zM9.066 24h1.6v1.6h-1.6zM5.333 25.6h-1.6v-1.6h1.6zM6.4 26.666h1.6v1.6h-1.6zM10.1 28.267h-1.033v-1.6h1.6v1.067c-0.017 0.298-0.263 0.534-0.564 0.534-0.001 0-0.002 0-0.003 0h0zM10.666 22.933h-1.6v-1.6h1.6zM5.333 21.333v1.6h-1.6v-1.6z"></path>
</symbol>
<symbol id="icon-noun_description_192324" viewBox="0 0 25 32">
<path d="M24.889 31.111v-25.778c-0.007-0.246-0.1-0.469-0.25-0.641l0.001 0.001-4.445-4.445c-0.171-0.149-0.394-0.242-0.639-0.249l-0.001-0h-18.666c-0.003-0-0.006-0-0.009-0-0.486 0-0.88 0.394-0.88 0.88 0 0.003 0 0.006 0 0.009v-0 30.222c-0 0.003-0 0.006-0 0.009 0 0.486 0.394 0.88 0.88 0.88 0.003 0 0.006 0 0.009-0h23.111c0.003 0 0.006 0 0.009 0 0.486 0 0.88-0.394 0.88-0.88 0-0.003 0-0.006-0-0.009v0zM19.555 2.134l3.2 3.2h-3.2zM23.111 30.222h-21.333v-28.445h16v4.445c-0 0.003-0 0.006-0 0.009 0 0.486 0.394 0.88 0.88 0.88 0.003 0 0.006 0 0.009-0h4.444z"></path>
<path d="M18.667 14.222h-12.445c-0.491 0-0.889 0.398-0.889 0.889s0.398 0.889 0.889 0.889h12.445c0.491 0 0.889-0.398 0.889-0.889s-0.398-0.889-0.889-0.889v0z"></path>
<path d="M6.222 10.666c-0.491 0-0.889 0.398-0.889 0.889s0.398 0.889 0.889 0.889h12.445c0.491 0 0.889-0.398 0.889-0.889s-0.398-0.889-0.889-0.889v0z"></path>
<path d="M18.667 17.778h-12.445c-0.491 0-0.889 0.398-0.889 0.889s0.398 0.889 0.889 0.889h12.445c0.491 0 0.889-0.398 0.889-0.889s-0.398-0.889-0.889-0.889v0z"></path>
<path d="M18.667 21.334h-12.445c-0.491 0-0.889 0.398-0.889 0.889s0.398 0.889 0.889 0.889h12.445c0.491 0 0.889-0.398 0.889-0.889s-0.398-0.889-0.889-0.889v0z"></path>
<path d="M18.667 24.889h-12.445c-0.491 0-0.889 0.398-0.889 0.889s0.398 0.889 0.889 0.889h12.445c0.491 0 0.889-0.398 0.889-0.889s-0.398-0.889-0.889-0.889v0z"></path>
</symbol>
<symbol id="icon-noun_delivery_-3" viewBox="0 0 51 32">
<path d="M50.425 17.671l-9.218-7.582c-0.099-0.085-0.212-0.157-0.335-0.213l-0.009-0.004c-0.14-0.058-0.301-0.094-0.471-0.102l-0.003-0h-6.115v-8.344c0-0.794-0.643-1.437-1.437-1.437v0h-31.401c-0.794 0-1.437 0.643-1.437 1.437v0 24.943c0 0.794 0.643 1.437 1.437 1.437v0h4.775c0.701 2.441 2.914 4.196 5.536 4.196s4.835-1.756 5.526-4.156l0.010-0.041h17.687c0.701 2.441 2.914 4.196 5.536 4.196s4.835-1.756 5.526-4.156l0.010-0.041h3.48c0.794 0 1.437-0.643 1.437-1.437v0-7.592c-0.004-0.446-0.211-0.843-0.532-1.104l-0.003-0.002zM38.922 12.637v4.013h-4.645v-4.013zM2.976 2.876h28.428v22.056h-14.079c-0.067-0.251-0.137-0.457-0.217-0.657l0.014 0.038c0.002-0.012 0.003-0.026 0.003-0.040 0-0.084-0.034-0.16-0.089-0.215v0c-0.151-0.349-0.315-0.647-0.502-0.928l0.013 0.021-0.158-0.201c-0.159-0.218-0.319-0.41-0.491-0.591l0.002 0.002-0.273-0.255c-0.154-0.142-0.32-0.279-0.494-0.407l-0.016-0.011-0.331-0.217c-0.158-0.101-0.347-0.206-0.542-0.301l-0.034-0.015-0.359-0.158c-0.184-0.074-0.415-0.148-0.651-0.208l-0.040-0.009-0.331-0.087c-0.324-0.069-0.697-0.109-1.079-0.109s-0.755 0.040-1.114 0.115l0.035-0.006-0.331 0.087c-0.276 0.068-0.506 0.142-0.729 0.23l0.039-0.014-0.359 0.158c-0.234 0.109-0.427 0.214-0.613 0.33l0.024-0.014-0.316 0.217c-0.198 0.143-0.372 0.284-0.537 0.435l-0.25 0.225c-0.187 0.195-0.361 0.407-0.521 0.63l-0.012 0.017-0.135 0.168c-0.182 0.264-0.353 0.566-0.495 0.883l-0.015 0.036c0 0.001 0 0.002 0 0.003 0 0.080-0.027 0.155-0.072 0.214l0.001-0.001c-0.071 0.166-0.145 0.376-0.207 0.591l-0.010 0.041h-3.256zM11.847 29.218c1.638-0.029 2.955-1.363 2.955-3.006 0-1.66-1.346-3.006-3.006-3.006s-3.006 1.346-3.006 3.006c0 1.642 1.317 2.977 2.953 3.006l0.003 0zM40.604 29.218c1.638-0.029 2.955-1.363 2.955-3.006 0-1.66-1.346-3.006-3.006-3.006s-3.006 1.346-3.006 3.006c0 1.642 1.317 2.977 2.953 3.006l0.003 0zM48.181 24.904h-2.099c-0.072-0.251-0.146-0.456-0.231-0.656l0.014 0.037c0.002-0.012 0.003-0.026 0.003-0.040 0-0.084-0.034-0.16-0.089-0.215v0c-0.151-0.349-0.315-0.647-0.502-0.928l0.013 0.021-0.143-0.191c-0.159-0.218-0.319-0.41-0.491-0.591l0.002 0.002-0.273-0.255c-0.154-0.142-0.32-0.279-0.494-0.407l-0.016-0.011-0.331-0.217c-0.158-0.101-0.347-0.206-0.542-0.301l-0.034-0.015-0.369-0.145c-0.184-0.074-0.415-0.148-0.651-0.208l-0.040-0.009-0.331-0.087c-0.324-0.069-0.697-0.109-1.079-0.109s-0.755 0.040-1.114 0.115l0.035-0.006-0.331 0.087c-0.276 0.068-0.506 0.142-0.73 0.23l0.039-0.014-0.359 0.158c-0.234 0.109-0.427 0.214-0.613 0.33l0.024-0.014-0.316 0.217c-0.199 0.143-0.372 0.284-0.537 0.435l-0.25 0.225c-0.187 0.195-0.361 0.407-0.521 0.63l-0.012 0.017-0.115 0.143c-0.182 0.264-0.353 0.566-0.495 0.883l-0.015 0.036c0 0.001 0 0.002 0 0.003 0 0.080-0.027 0.155-0.072 0.214l0.001-0.001c-0.071 0.166-0.145 0.376-0.207 0.591l-0.010 0.041h-0.647v-5.386h6.025c0.794 0 1.437-0.643 1.437-1.437v0-3.829l6.341 5.22z"></path>
</symbol>
<symbol id="icon-noun_avatar_-3" viewBox="0 0 32 32">
<path d="M28.874 23.281l-7.074-2.902c-0.371-0.15-0.629-0.506-0.632-0.923v-1.654c-0-0.002-0-0.005-0-0.008 0-0.22 0.076-0.422 0.202-0.582l-0.002 0.002c1.802-2.317 2.891-5.267 2.899-8.47v-0.002c0.002-5.229-3.321-8.743-8.268-8.743s-8.269 3.513-8.269 8.744c0.008 3.205 1.097 6.154 2.922 8.503l-0.024-0.032c0.125 0.158 0.2 0.36 0.2 0.58 0 0.002 0 0.005-0 0.007v-0 1.652c-0.003 0.417-0.261 0.773-0.625 0.921l-0.007 0.002-7.074 2.902c-1.848 0.763-3.124 2.55-3.124 4.636 0 0 0 0 0 0v0 2.752c0.001 0.736 0.598 1.332 1.334 1.332h29.332c0.737 0 1.334-0.597 1.334-1.334v0-2.75c-0.001-2.086-1.278-3.873-3.093-4.623l-0.033-0.012zM29.334 29.334h-26.668v-1.418c0.004-0.977 0.604-1.813 1.456-2.162l0.016-0.006 7.074-2.902c1.351-0.558 2.285-1.865 2.285-3.39v-1.654c0-0.001 0-0.003 0-0.004 0-0.855-0.297-1.641-0.794-2.26l0.005 0.007c-1.431-1.867-2.297-4.231-2.311-6.798v-0.003c0-4.48 2.893-6.077 5.603-6.077s5.603 1.597 5.603 6.077c-0.013 2.57-0.88 4.934-2.331 6.828l0.020-0.027c-0.491 0.612-0.788 1.398-0.788 2.253 0 0.001 0 0.003 0 0.004v-0 1.652c0 1.525 0.934 2.833 2.261 3.381l0.024 0.009 7.074 2.902c0.867 0.355 1.468 1.19 1.472 2.167v0z"></path>
</symbol>
<symbol id="icon-gmail" viewBox="0 0 42 32">
<path fill="#f2f2f2" style="fill: var(--color4, #f2f2f2)" d="M39.787 5.073l-2.681 26.927h-32.207l-2.16-26.399 18.264 10.226z"></path>
<path fill="#f2f2f2" style="fill: var(--color4, #f2f2f2)" d="M38.877 0l-17.875 16.8-17.875-16.8h35.75z"></path>
<path fill="#f14336" style="fill: var(--color5, #f14336)" d="M4.898 7.745v24.246h-2.917c0 0 0 0-0 0-1.091 0-1.976-0.882-1.981-1.972v-25.837l3.201 0.087z"></path>
<path fill="#d32e2a" style="fill: var(--color6, #d32e2a)" d="M42.006 4.182v25.837c0 1.094-0.887 1.981-1.981 1.981v0h-2.917v-24.248l1.614-3.816z"></path>
<path fill="#f14336" style="fill: var(--color5, #f14336)" d="M42.006 1.981v2.201l-21.002 15.309-21.004-15.309v-2.201c0-1.094 0.887-1.981 1.981-1.981h1.148l17.875 13.030 17.875-13.030h1.145c1.094 0 1.981 0.887 1.981 1.981v0z"></path>
<path fill="#d32e2a" style="fill: var(--color6, #d32e2a)" d="M4.898 7.745l-4.898-0.751v-2.812z"></path>
</symbol>
<symbol id="icon-streetsign" viewBox="0 0 29 32">
<path d="M15 31.5v-9.5c0-0.276-0.133-1-0.409-1s-0.591 0.224-0.591 0.5v10c0 0.276 0.314 0.5 0.591 0.5s0.409-0.224 0.409-0.5zM15.091 1.562v-1.062c0-0.276-0.224-0.5-0.5-0.5s-0.5 0.224-0.5 0.5v1.062c0 0.276 0.224 0.5 0.5 0.5s0.5-0.223 0.5-0.5zM3.89 3.471l-3.567 2.798c-0.205 0.189-0.323 0.456-0.323 0.731s0.118 0.542 0.354 0.758l3.505 2.745c0.307 0.283 0.854 0.497 1.273 0.497h13.828c0.573 0 1.040-0.463 1.040-1.033v-5.934c0-0.57-0.467-1.033-1.040-1.033h-13.828c-0.419 0-0.966 0.214-1.242 0.471zM19 9.967c0 0.015-0.018 0.033-0.040 0.033h-13.828c-0.17 0-0.471-0.117-0.625-0.258l-3.536-2.713 3.566-2.798c0.125-0.114 0.425-0.231 0.595-0.231l13.868 0.033v5.934zM25.141 12.497c-0.307-0.283-0.854-0.497-1.273-0.497h-13.828c-0.573 0-1.040 0.463-1.040 1.033v5.935c0 0.569 0.467 1.032 1.040 1.032h13.828c0.419 0 0.966-0.214 1.243-0.471l3.566-2.798c0.205-0.189 0.323-0.456 0.323-0.731s-0.118-0.542-0.354-0.758l-3.505-2.745zM10 13h13.868c0.17 0 0.471 0.117 0.625 0.258l3.536 2.713-3.566 2.798c-0.125 0.114-0.425 0.231-0.595 0.231h-13.868v-6z"></path>
</symbol>
<symbol id="icon-clear" viewBox="0 0 24 24">
<path d="M18.984 6.422l-5.578 5.578 5.578 5.578-1.406 1.406-5.578-5.578-5.578 5.578-1.406-1.406 5.578-5.578-5.578-5.578 1.406-1.406 5.578 5.578 5.578-5.578z"></path>
</symbol>
<symbol id="icon-arrow_back" viewBox="0 0 24 24">
<path d="M20.016 11.016v1.969h-12.188l5.578 5.625-1.406 1.406-8.016-8.016 8.016-8.016 1.406 1.406-5.578 5.625h12.188z"></path>
</symbol>
<symbol id="icon-arrow_forward" viewBox="0 0 24 24">
<path d="M12 3.984l8.016 8.016-8.016 8.016-1.406-1.406 5.578-5.625h-12.188v-1.969h12.188l-5.578-5.625z"></path>
</symbol>
<symbol id="icon-search" viewBox="0 0 24 24">
<path d="M9.516 14.016q1.875 0 3.188-1.313t1.313-3.188-1.313-3.188-3.188-1.313-3.188 1.313-1.313 3.188 1.313 3.188 3.188 1.313zM15.516 14.016l4.969 4.969-1.5 1.5-4.969-4.969v-0.797l-0.281-0.281q-1.781 1.547-4.219 1.547-2.719 0-4.617-1.875t-1.898-4.594 1.898-4.617 4.617-1.898 4.594 1.898 1.875 4.617q0 0.984-0.469 2.227t-1.078 1.992l0.281 0.281h0.797z"></path>
</symbol>
</defs>
</svg>
