<!-- Generated by IcoMoon.io -->
<svg version="1.1" xmlns="http://www.w3.org/2000/svg" width="45" height="32" viewBox="0 0 45 32">
<title>-2</title>
<path d="M14.589 0c-3.554 0.003-6.532 2.465-7.325 5.776l-0.010 0.051h-5.522c-0.957 0-1.732 0.775-1.732 1.732s0.775 1.732 1.732 1.732h5.522c0.814 3.351 3.788 5.801 7.335 5.801s6.522-2.45 7.325-5.75l0.011-0.052h21.434c0.956 0 1.732-0.775 1.732-1.732s-0.775-1.732-1.732-1.732v0h-21.428c-0.804-3.364-3.785-5.827-7.341-5.827-0 0-0 0-0 0v0zM14.589 11.654c-2.25 0-4.075-1.824-4.075-4.075s1.824-4.075 4.075-4.075c2.25 0 4.075 1.824 4.075 4.075 0 0.001 0 0.003 0 0.004v-0c-0.002 2.249-1.826 4.070-4.075 4.070v0z"></path>
<path d="M30.563 16.911c-3.554 0.003-6.532 2.465-7.325 5.776l-0.010 0.051h-21.496c-0.957 0-1.732 0.775-1.732 1.732s0.775 1.732 1.732 1.732h21.428c0.814 3.351 3.788 5.801 7.335 5.801s6.522-2.45 7.325-5.75l0.011-0.052h5.522c0.956 0 1.732-0.775 1.732-1.732s-0.775-1.732-1.732-1.732h-5.515c-0.799-3.342-3.745-5.794-7.27-5.827l-0.004-0zM30.563 28.526c-2.25 0-4.075-1.824-4.075-4.075s1.824-4.075 4.075-4.075c2.25 0 4.073 1.823 4.075 4.072v0c0 0.001 0 0.001 0 0.002 0 2.25-1.824 4.075-4.075 4.075v0z"></path>
</svg>
