<!-- Generated by IcoMoon.io -->
<svg version="1.1" xmlns="http://www.w3.org/2000/svg" width="42" height="32" viewBox="0 0 42 32">
<title>gmail</title>
<path fill="#f2f2f2" d="M39.787 5.073l-2.681 26.927h-32.207l-2.16-26.399 18.264 10.226z"></path>
<path fill="#f2f2f2" d="M38.877 0l-17.875 16.8-17.875-16.8h35.75z"></path>
<path fill="#f14336" d="M4.898 7.745v24.246h-2.917c0 0 0 0-0 0-1.091 0-1.976-0.882-1.981-1.972v-25.837l3.201 0.087z"></path>
<path fill="#d32e2a" d="M42.006 4.182v25.837c0 1.094-0.887 1.981-1.981 1.981v0h-2.917v-24.248l1.614-3.816z"></path>
<path fill="#f14336" d="M42.006 1.981v2.201l-21.002 15.309-21.004-15.309v-2.201c0-1.094 0.887-1.981 1.981-1.981h1.148l17.875 13.030 17.875-13.030h1.145c1.094 0 1.981 0.887 1.981 1.981v0z"></path>
<path fill="#d32e2a" d="M4.898 7.745l-4.898-0.751v-2.812z"></path>
</svg>
