<!-- Generated by IcoMoon.io -->
<svg version="1.1" xmlns="http://www.w3.org/2000/svg" width="25" height="32" viewBox="0 0 25 32">
<title>noun_description_192324</title>
<path opacity="0.1" fill="#000" d="M24.889 31.111v-25.778c-0.007-0.246-0.1-0.469-0.25-0.641l0.001 0.001-4.445-4.445c-0.171-0.149-0.394-0.242-0.639-0.249l-0.001-0h-18.666c-0.003-0-0.006-0-0.009-0-0.486 0-0.88 0.394-0.88 0.88 0 0.003 0 0.006 0 0.009v-0 30.222c-0 0.003-0 0.006-0 0.009 0 0.486 0.394 0.88 0.88 0.88 0.003 0 0.006 0 0.009-0h23.111c0.003 0 0.006 0 0.009 0 0.486 0 0.88-0.394 0.88-0.88 0-0.003 0-0.006-0-0.009v0zM19.555 2.134l3.2 3.2h-3.2zM23.111 30.222h-21.333v-28.445h16v4.445c-0 0.003-0 0.006-0 0.009 0 0.486 0.394 0.88 0.88 0.88 0.003 0 0.006 0 0.009-0h4.444z"></path>
<path opacity="0.1" fill="#000" d="M18.667 14.222h-12.445c-0.491 0-0.889 0.398-0.889 0.889s0.398 0.889 0.889 0.889h12.445c0.491 0 0.889-0.398 0.889-0.889s-0.398-0.889-0.889-0.889v0z"></path>
<path opacity="0.1" fill="#000" d="M6.222 10.666c-0.491 0-0.889 0.398-0.889 0.889s0.398 0.889 0.889 0.889h12.445c0.491 0 0.889-0.398 0.889-0.889s-0.398-0.889-0.889-0.889v0z"></path>
<path opacity="0.1" fill="#000" d="M18.667 17.778h-12.445c-0.491 0-0.889 0.398-0.889 0.889s0.398 0.889 0.889 0.889h12.445c0.491 0 0.889-0.398 0.889-0.889s-0.398-0.889-0.889-0.889v0z"></path>
<path opacity="0.1" fill="#000" d="M18.667 21.334h-12.445c-0.491 0-0.889 0.398-0.889 0.889s0.398 0.889 0.889 0.889h12.445c0.491 0 0.889-0.398 0.889-0.889s-0.398-0.889-0.889-0.889v0z"></path>
<path opacity="0.1" fill="#000" d="M18.667 24.889h-12.445c-0.491 0-0.889 0.398-0.889 0.889s0.398 0.889 0.889 0.889h12.445c0.491 0 0.889-0.398 0.889-0.889s-0.398-0.889-0.889-0.889v0z"></path>
</svg>
