<!-- Generated by IcoMoon.io -->
<svg version="1.1" xmlns="http://www.w3.org/2000/svg" width="34" height="32" viewBox="0 0 34 32">
<title>noun_Star_-11</title>
<path fill="#fbb03b" d="M33.501 12.152c-0.136-0.419-0.473-0.701-1.491-0.796l-9.265-0.861c-0.496-0.004-0.916-0.324-1.070-0.768l-0.002-0.008-3.68-8.547c-0.405-0.936-0.776-1.171-1.219-1.171s-0.814 0.235-1.219 1.171l-3.68 8.547c-0.156 0.452-0.576 0.772-1.072 0.776h-0l-9.265 0.858c-1.021 0.095-1.362 0.378-1.491 0.796s-0.031 0.848 0.739 1.522l6.992 6.127c0.281 0.211 0.461 0.543 0.461 0.917 0 0.122-0.019 0.24-0.055 0.35l0.002-0.008-2.042 9.078c-0.225 0.994-0.061 1.406 0.296 1.665s0.796 0.289 1.675-0.231l8.003-4.765c0.184-0.132 0.414-0.212 0.662-0.212s0.478 0.079 0.665 0.214l-0.003-0.002 8.003 4.765c0.878 0.521 1.317 0.49 1.675 0.231s0.521-0.681 0.296-1.665l-2.042-9.078c-0.033-0.102-0.052-0.22-0.052-0.342 0-0.374 0.18-0.707 0.458-0.915l0.003-0.002 6.992-6.127c0.759-0.671 0.865-1.099 0.728-1.518z"></path>
</svg>
