<!-- Generated by IcoMoon.io -->
<svg version="1.1" xmlns="http://www.w3.org/2000/svg" width="32" height="32" viewBox="0 0 32 32">
<title>noun_cart_-1</title>
<path d="M1.334 2.666h2.227l3.338 15.062c-1.623 0.788-2.723 2.424-2.723 4.317 0 0.038 0 0.076 0.001 0.113l-0-0.006c-0.003 0.064-0.005 0.138-0.005 0.213 0 2.431 1.904 4.418 4.302 4.55l0.012 0.001h17.679c0.013 0 0.029 0.001 0.044 0.001 0.737 0 1.334-0.597 1.334-1.334s-0.597-1.334-1.334-1.334c-0.015 0-0.031 0-0.046 0.001l0.002-0h-17.68c-0.942-0.142-1.656-0.946-1.656-1.917 0-0.063 0.003-0.125 0.009-0.187l-0.001 0.008c-0.005-0.054-0.009-0.118-0.009-0.182 0-0.968 0.71-1.771 1.638-1.915l0.011-0.001h17.687c0 0 0 0 0 0 0.574 0 1.064-0.363 1.252-0.872l0.003-0.009 4.509-12.496c0.050-0.134 0.079-0.289 0.079-0.451 0-0.737-0.597-1.334-1.334-1.334h-23.888l-0.852-3.849c-0.136-0.603-0.667-1.046-1.301-1.046-0 0-0 0-0.001 0h-3.297c-0.717 0.024-1.29 0.612-1.29 1.333s0.572 1.309 1.288 1.333l0.002 0zM28.769 7.564l-3.542 9.83h-15.674l-2.182-9.83h21.398z"></path>
<path d="M9.562 29.334c-0.717 0.024-1.29 0.612-1.29 1.333s0.572 1.309 1.288 1.333l0.002 0h1.693c0.013 0 0.029 0.001 0.044 0.001 0.737 0 1.334-0.597 1.334-1.334s-0.597-1.334-1.334-1.334c-0.015 0-0.031 0-0.046 0.001l0.002-0z"></path>
<path d="M21.863 29.334c-0.717 0.024-1.29 0.612-1.29 1.333s0.572 1.309 1.288 1.333l0.002 0h1.693c0.013 0 0.029 0.001 0.044 0.001 0.737 0 1.334-0.597 1.334-1.334s-0.597-1.334-1.334-1.334c-0.015 0-0.031 0-0.046 0.001l0.002-0z"></path>
</svg>
