<!-- Generated by IcoMoon.io -->
<svg version="1.1" xmlns="http://www.w3.org/2000/svg" width="32" height="32" viewBox="0 0 32 32">
<title>noun_Home_-4</title>
<path fill="#b2b2b2" d="M2.193 14.733l0.698-0.589v16.523c0 0.736 0.597 1.333 1.333 1.333v0h23.552c0.736 0 1.333-0.597 1.333-1.333v0-16.523l0.698 0.589c0.227 0.184 0.518 0.295 0.836 0.295 0.736 0 1.333-0.597 1.333-1.333 0-0.397-0.173-0.753-0.449-0.998l-0.001-0.001-6.4-5.404v-5.075c0-0.736-0.597-1.333-1.333-1.333s-1.333 0.597-1.333 1.333v0 2.825l-5.606-4.727c-0.23-0.195-0.531-0.314-0.86-0.314s-0.629 0.119-0.862 0.316l0.002-0.002-14.667 12.373c-0.304 0.246-0.497 0.62-0.497 1.039 0 0.736 0.597 1.333 1.333 1.333 0.339 0 0.649-0.127 0.885-0.336l-0.001 0.001zM13.013 29.333v-9.626h5.973v9.626zM16 3.078l10.443 8.815v17.44h-4.796v-10.959c0-0.736-0.597-1.333-1.333-1.333v0h-8.627c-0.736 0-1.333 0.597-1.333 1.333v0 10.959h-4.796v-17.44z"></path>
</svg>
