<!-- Generated by IcoMoon.io -->
<svg version="1.1" xmlns="http://www.w3.org/2000/svg" width="32" height="32" viewBox="0 0 32 32">
<title>noun_materials_-4</title>
<path d="M10.097 20.685c0 0.526-0.427 0.953-0.953 0.953s-0.953-0.427-0.953-0.953c0-0.526 0.427-0.953 0.953-0.953s0.953 0.427 0.953 0.953z"></path>
<path d="M31.63 0h-21.358v10.642h-10.271v21.358h21.358v-10.642h10.271v-21.358zM29.967 4.551l-8.607 8.607v-2.516h-3.167l8.905-8.905-0.074-0.074h2.943v2.888zM19.695 21.305c-1.427-0.24-3.641-0.51-4.439 2.174-0.426 1.434-1.579 3.081-2.506 4.405-0.554 0.713-1.059 1.518-1.48 2.371l-0.037 0.083h-2.634c-0-0.008-0-0.017-0-0.026 0-1.322 0.449-2.539 1.203-3.507l-0.010 0.013c0.361-0.407 0.774-0.756 1.23-1.042l0.024-0.014c1.546-0.897 2.621-2.459 2.834-4.285l0.003-0.027c0.079-0.429 0.125-0.924 0.125-1.428 0-1.188-0.251-2.317-0.704-3.338l0.021 0.053c-0.425-0.97-0.673-2.101-0.673-3.29 0-0.403 0.028-0.799 0.083-1.186l-0.005 0.044h2.435c0.069 0.339 0.127 0.691 0.189 1.063 0.349 2.101 0.783 4.715 3.575 6.152 0.156 0.081 0.258 0.136 0.322 0.173 0.121 0.126 0.27 0.225 0.436 0.288l0.008 0.003v1.324zM6.184 22.783c-0.025-0.233-0.040-0.503-0.040-0.777 0-0.623 0.075-1.229 0.216-1.808l-0.011 0.052c0.255-0.877 0.644-1.641 1.151-2.312l-0.013 0.018c1.153-1.558 1.846-3.518 1.846-5.639 0-0.004 0-0.009 0-0.013v0.001h1.727c-0.043 0.348-0.067 0.75-0.067 1.158 0 1.389 0.284 2.711 0.797 3.912l-0.025-0.065c0.366 0.799 0.579 1.733 0.579 2.717 0 0.412-0.037 0.816-0.109 1.207l0.006-0.041c-0.302 1.931-1.153 2.519-2.139 3.2-0.617 0.39-1.146 0.849-1.599 1.375l-0.008 0.009c-0.971 1.236-1.558 2.814-1.558 4.529 0 0.011 0 0.021 0 0.032v-0.002h-1.737c1.156-4.068 1.061-5.993 0.984-7.553zM19.695 18.044l-0.006-0.003c-2.049-1.054-2.363-2.945-2.695-4.946-0.043-0.261-0.089-0.526-0.138-0.791h2.839v5.738zM11.934 9.171l7.507-7.508h5.378l-8.978 8.979h-3.907zM17.090 1.663l-5.156 5.156v-5.156zM4.246 12.305c-0.444 1.66-0.974 3.085-1.618 4.446l0.067-0.158c-0.339 0.805-0.692 1.646-1.031 2.517v-6.805zM1.663 24.994c0.459-2.753 1.576-5.411 2.564-7.757 0.689-1.41 1.276-3.055 1.675-4.773l0.031-0.16h1.735c0 0.004 0 0.008 0 0.012 0 1.778-0.588 3.419-1.581 4.739l0.015-0.020c-0.594 0.797-1.062 1.729-1.351 2.737l-0.015 0.061c-0.164 0.648-0.258 1.393-0.258 2.159 0 0.308 0.015 0.613 0.045 0.914l-0.003-0.038c0.074 1.495 0.166 3.348-1.054 7.471h-1.804v-5.344zM13.102 30.337c0.285-0.465 0.682-1.032 1.010-1.5 0.993-1.422 2.235-3.192 2.738-4.885 0.374-1.26 1.048-1.269 2.735-0.979l0.11 0.019v7.346zM21.358 15.511l8.607-8.607v5.602l-7.187 7.19h-1.42v-4.185zM25.128 19.695l4.839-4.839v4.839z"></path>
</svg>
