<!-- Generated by IcoMoon.io -->
<svg version="1.1" xmlns="http://www.w3.org/2000/svg" width="42" height="32" viewBox="0 0 42 32">
<title>noun_cloth_-1</title>
<path d="M19.729 31.999c-0.012 0-0.026 0.001-0.040 0.001-0.522 0-0.968-0.326-1.146-0.785l-0.003-0.008-2.98-7.822h-13.1c-1.358 0-2.459-1.101-2.459-2.459 0-0.001 0-0.001 0-0.002v0-18.462c0-0 0-0.001 0-0.001 0-1.359 1.101-2.46 2.46-2.46 0.003 0 0.006 0 0.009 0h17.227c0 0 0 0 0 0 0.489 0 0.912 0.286 1.11 0.699l0.003 0.007 3.721 7.908h14.859c1.358 0 2.459 1.101 2.459 2.459 0 0.001 0 0.001 0 0.002v-0 18.461c0 0 0 0.001 0 0.001 0 1.359-1.102 2.46-2.46 2.46-0.003 0-0.006 0-0.009 0h0zM18.911 2.461h-16.442s0 6.154 0 18.461h25.137zM25.685 11.076l4.966 10.552c0.074 0.153 0.117 0.333 0.117 0.524 0 0.369-0.162 0.7-0.419 0.925l-0.001 0.001-7.381 6.458h16.413s0-6.154 0-18.461zM20.212 28.677l6.050-5.294h-8.068z"></path>
</svg>
