<!-- Generated by IcoMoon.io -->
<svg version="1.1" xmlns="http://www.w3.org/2000/svg" width="30" height="32" viewBox="0 0 30 32">
<title>noun_guarantee_-5</title>
<path d="M29.506 4.125l-14.034-4.078c-0.096-0.030-0.206-0.047-0.32-0.047s-0.224 0.017-0.328 0.049l0.008-0.002-14.031 4.078c-0.467 0.143-0.8 0.57-0.8 1.075 0 0.002 0 0.004 0 0.006v-0 12.255c0 10.665 14.277 14.357 14.887 14.506 0.081 0.021 0.174 0.034 0.27 0.034 0.104 0 0.204-0.014 0.299-0.041l-0.008 0.002c0.876-0.219 14.865-3.935 14.865-14.5v-12.255c0-0.001 0-0.002 0-0.003 0-0.508-0.337-0.937-0.8-1.075l-0.008-0.002zM28.069 17.46c0 8.196-11.025 11.733-12.911 12.255-1.887-0.522-12.912-4.042-12.912-12.255v-11.407l12.911-3.761 12.911 3.754z"></path>
<path d="M14.034 8.983v1.174c-1.602 0.279-2.805 1.659-2.805 3.321 0 1.859 1.507 3.367 3.366 3.368h1.684c0.62 0 1.123 0.503 1.123 1.123s-0.503 1.123-1.123 1.123v0h-3.368c-0.62 0-1.123 0.503-1.123 1.123s0.503 1.123 1.123 1.123v0h1.122v1.122c0 0.62 0.503 1.123 1.123 1.123s1.123-0.503 1.123-1.123v0-1.125c1.86 0 3.368-1.508 3.368-3.368s-1.508-3.368-3.368-3.368v0h-1.684c-0.62 0-1.123-0.503-1.123-1.123s0.503-1.123 1.123-1.123v0h3.369c0.62 0 1.123-0.503 1.123-1.123s-0.503-1.123-1.123-1.123v0h-1.684v-1.123c0-0.62-0.503-1.123-1.123-1.123s-1.123 0.503-1.123 1.123v0z"></path>
</svg>
