<!-- Generated by IcoMoon.io -->
<svg version="1.1" xmlns="http://www.w3.org/2000/svg" width="56" height="32" viewBox="0 0 56 32">
<title>noun_Next_-2</title>
<path d="M31.387 30.606l23.421-23.421c0.608-0.725 0.977-1.668 0.977-2.697 0-2.325-1.885-4.211-4.211-4.211-1.029 0-1.972 0.369-2.703 0.982l0.007-0.005-20.856 20.811-20.836-20.831c-0.725-0.608-1.668-0.977-2.697-0.977-2.325 0-4.211 1.885-4.211 4.211 0 1.029 0.369 1.972 0.982 2.703l-0.005-0.007 23.401 23.44c0.861 0.861 2.051 1.394 3.366 1.394s2.504-0.533 3.366-1.394v0z"></path>
</svg>
