<!-- Generated by IcoMoon.io -->
<svg version="1.1" xmlns="http://www.w3.org/2000/svg" width="32" height="32" viewBox="0 0 32 32">
<title>noun_avatar_-3</title>
<path d="M28.874 23.281l-7.074-2.902c-0.371-0.15-0.629-0.506-0.632-0.923v-1.654c-0-0.002-0-0.005-0-0.008 0-0.22 0.076-0.422 0.202-0.582l-0.002 0.002c1.802-2.317 2.891-5.267 2.899-8.47v-0.002c0.002-5.229-3.321-8.743-8.268-8.743s-8.269 3.513-8.269 8.744c0.008 3.205 1.097 6.154 2.922 8.503l-0.024-0.032c0.125 0.158 0.2 0.36 0.2 0.58 0 0.002 0 0.005-0 0.007v-0 1.652c-0.003 0.417-0.261 0.773-0.625 0.921l-0.007 0.002-7.074 2.902c-1.848 0.763-3.124 2.55-3.124 4.636 0 0 0 0 0 0v0 2.752c0.001 0.736 0.598 1.332 1.334 1.332h29.332c0.737 0 1.334-0.597 1.334-1.334v0-2.75c-0.001-2.086-1.278-3.873-3.093-4.623l-0.033-0.012zM29.334 29.334h-26.668v-1.418c0.004-0.977 0.604-1.813 1.456-2.162l0.016-0.006 7.074-2.902c1.351-0.558 2.285-1.865 2.285-3.39v-1.654c0-0.001 0-0.003 0-0.004 0-0.855-0.297-1.641-0.794-2.26l0.005 0.007c-1.431-1.867-2.297-4.231-2.311-6.798v-0.003c0-4.48 2.893-6.077 5.603-6.077s5.603 1.597 5.603 6.077c-0.013 2.57-0.88 4.934-2.331 6.828l0.020-0.027c-0.491 0.612-0.788 1.398-0.788 2.253 0 0.001 0 0.003 0 0.004v-0 1.652c0 1.525 0.934 2.833 2.261 3.381l0.024 0.009 7.074 2.902c0.867 0.355 1.468 1.19 1.472 2.167v0z"></path>
</svg>
