<!-- Generated by IcoMoon.io -->
<svg version="1.1" xmlns="http://www.w3.org/2000/svg" width="51" height="32" viewBox="0 0 51 32">
<title>noun_delivery_-3</title>
<path d="M50.425 17.671l-9.218-7.582c-0.099-0.085-0.212-0.157-0.335-0.213l-0.009-0.004c-0.14-0.058-0.301-0.094-0.471-0.102l-0.003-0h-6.115v-8.344c0-0.794-0.643-1.437-1.437-1.437v0h-31.401c-0.794 0-1.437 0.643-1.437 1.437v0 24.943c0 0.794 0.643 1.437 1.437 1.437v0h4.775c0.701 2.441 2.914 4.196 5.536 4.196s4.835-1.756 5.526-4.156l0.010-0.041h17.687c0.701 2.441 2.914 4.196 5.536 4.196s4.835-1.756 5.526-4.156l0.010-0.041h3.48c0.794 0 1.437-0.643 1.437-1.437v0-7.592c-0.004-0.446-0.211-0.843-0.532-1.104l-0.003-0.002zM38.922 12.637v4.013h-4.645v-4.013zM2.976 2.876h28.428v22.056h-14.079c-0.067-0.251-0.137-0.457-0.217-0.657l0.014 0.038c0.002-0.012 0.003-0.026 0.003-0.040 0-0.084-0.034-0.16-0.089-0.215v0c-0.151-0.349-0.315-0.647-0.502-0.928l0.013 0.021-0.158-0.201c-0.159-0.218-0.319-0.41-0.491-0.591l0.002 0.002-0.273-0.255c-0.154-0.142-0.32-0.279-0.494-0.407l-0.016-0.011-0.331-0.217c-0.158-0.101-0.347-0.206-0.542-0.301l-0.034-0.015-0.359-0.158c-0.184-0.074-0.415-0.148-0.651-0.208l-0.040-0.009-0.331-0.087c-0.324-0.069-0.697-0.109-1.079-0.109s-0.755 0.040-1.114 0.115l0.035-0.006-0.331 0.087c-0.276 0.068-0.506 0.142-0.729 0.23l0.039-0.014-0.359 0.158c-0.234 0.109-0.427 0.214-0.613 0.33l0.024-0.014-0.316 0.217c-0.198 0.143-0.372 0.284-0.537 0.435l-0.25 0.225c-0.187 0.195-0.361 0.407-0.521 0.63l-0.012 0.017-0.135 0.168c-0.182 0.264-0.353 0.566-0.495 0.883l-0.015 0.036c0 0.001 0 0.002 0 0.003 0 0.080-0.027 0.155-0.072 0.214l0.001-0.001c-0.071 0.166-0.145 0.376-0.207 0.591l-0.010 0.041h-3.256zM11.847 29.218c1.638-0.029 2.955-1.363 2.955-3.006 0-1.66-1.346-3.006-3.006-3.006s-3.006 1.346-3.006 3.006c0 1.642 1.317 2.977 2.953 3.006l0.003 0zM40.604 29.218c1.638-0.029 2.955-1.363 2.955-3.006 0-1.66-1.346-3.006-3.006-3.006s-3.006 1.346-3.006 3.006c0 1.642 1.317 2.977 2.953 3.006l0.003 0zM48.181 24.904h-2.099c-0.072-0.251-0.146-0.456-0.231-0.656l0.014 0.037c0.002-0.012 0.003-0.026 0.003-0.040 0-0.084-0.034-0.16-0.089-0.215v0c-0.151-0.349-0.315-0.647-0.502-0.928l0.013 0.021-0.143-0.191c-0.159-0.218-0.319-0.41-0.491-0.591l0.002 0.002-0.273-0.255c-0.154-0.142-0.32-0.279-0.494-0.407l-0.016-0.011-0.331-0.217c-0.158-0.101-0.347-0.206-0.542-0.301l-0.034-0.015-0.369-0.145c-0.184-0.074-0.415-0.148-0.651-0.208l-0.040-0.009-0.331-0.087c-0.324-0.069-0.697-0.109-1.079-0.109s-0.755 0.040-1.114 0.115l0.035-0.006-0.331 0.087c-0.276 0.068-0.506 0.142-0.73 0.23l0.039-0.014-0.359 0.158c-0.234 0.109-0.427 0.214-0.613 0.33l0.024-0.014-0.316 0.217c-0.199 0.143-0.372 0.284-0.537 0.435l-0.25 0.225c-0.187 0.195-0.361 0.407-0.521 0.63l-0.012 0.017-0.115 0.143c-0.182 0.264-0.353 0.566-0.495 0.883l-0.015 0.036c0 0.001 0 0.002 0 0.003 0 0.080-0.027 0.155-0.072 0.214l0.001-0.001c-0.071 0.166-0.145 0.376-0.207 0.591l-0.010 0.041h-0.647v-5.386h6.025c0.794 0 1.437-0.643 1.437-1.437v0-3.829l6.341 5.22z"></path>
</svg>
