<!-- Generated by IcoMoon.io -->
<svg version="1.1" xmlns="http://www.w3.org/2000/svg" width="56" height="32" viewBox="0 0 56 32">
<title>noun_Next_-1</title>
<path d="M31.387 1.399l23.421 23.421c0.608 0.725 0.977 1.668 0.977 2.697 0 2.325-1.885 4.211-4.211 4.211-1.029 0-1.972-0.369-2.703-0.982l0.007 0.005-20.836-20.836-20.836 20.836c-0.725 0.608-1.668 0.977-2.697 0.977-2.325 0-4.211-1.885-4.211-4.211 0-1.029 0.369-1.972 0.982-2.703l-0.005 0.007 23.421-23.421c0.859-0.85 2.041-1.375 3.346-1.375s2.487 0.525 3.346 1.375l-0-0z"></path>
</svg>
