<!-- Generated by IcoMoon.io -->
<svg version="1.1" xmlns="http://www.w3.org/2000/svg" width="14" height="32" viewBox="0 0 14 32">
<title>outline</title>
<path opacity="0.1" fill="#000" d="M3.733 32h6.933c2.061-0.002 3.731-1.673 3.733-3.733v-10.667c0-0.295-0.239-0.534-0.534-0.534h-1.6v-16.533c0-0.294-0.239-0.533-0.533-0.533h-4.8c-0.295 0-0.534 0.239-0.534 0.533v0 16.533h-1.066v-8.533c0-0.071-0.014-0.139-0.039-0.202l0.001 0.004-1.067-2.667c-0.081-0.198-0.272-0.336-0.496-0.336s-0.415 0.137-0.494 0.332l-0.001 0.004-1.067 2.667c-0.024 0.059-0.038 0.127-0.038 0.198v0 8.533h-1.6c-0 0-0 0-0 0-0.295 0-0.533 0.239-0.533 0.534v0 10.666c0.002 2.061 1.673 3.731 3.733 3.734h0zM7.466 1.067h3.733v1.067h-2.666v1.067h2.666v1.067h-1.6v1.067h1.6v1.067h-2.666v1.066h2.666v1.066h-1.6v1.067h1.6v1.066h-2.666v1.066h2.666v1.067h-1.6v1.066h1.6v1.066h-2.666v1.067h2.666v1.066h-3.733zM4.266 10.446l-1.067 1.065v-1.377h1.067zM3.2 13.021l1.067-1.066v1.692l-1.067 1.065zM3.2 8.636l0.534-1.333 0.534 1.333v0.43h-1.067zM3.2 16.221l1.067-1.066v1.91h-1.067zM1.067 18.131h12.267v10.135c-0.002 1.472-1.195 2.665-2.666 2.666h-6.934c-1.472-0.002-2.665-1.195-2.667-2.666v-0z"></path>
<path opacity="0.1" fill="#000" d="M4.266 29.333h5.833c0.004 0 0.009 0 0.014 0 0.887 0 1.608-0.714 1.619-1.599v-6.934c0-0.294-0.239-0.533-0.533-0.534h-8c-0.295 0-0.534 0.239-0.534 0.534v0 6.933c0 0.884 0.716 1.6 1.6 1.6v0zM3.733 27.733v-1.067h1.6v1.6h-1.066c-0.295 0-0.534-0.239-0.534-0.534v0zM8 24v1.6h-1.6v-1.6zM6.4 22.933v-1.6h1.6v1.6zM9.066 24h1.6v1.6h-1.6zM5.333 25.6h-1.6v-1.6h1.6zM6.4 26.666h1.6v1.6h-1.6zM10.1 28.267h-1.033v-1.6h1.6v1.067c-0.017 0.298-0.263 0.534-0.564 0.534-0.001 0-0.002 0-0.003 0h0zM10.666 22.933h-1.6v-1.6h1.6zM5.333 21.333v1.6h-1.6v-1.6z"></path>
</svg>
